<svg xmlns="http://www.w3.org/2000/svg" viewBox="0 0 1280 770" width="1280" height="770">
  <defs>
    <marker id="arrowhead" markerWidth="10" markerHeight="7" refX="10" refY="3.5" orient="auto">
      <polygon points="0 0, 10 3.5, 0 7" fill="#667085"/>
    </marker>
  </defs>
  <rect width="100%" height="100%" fill="#FFFFFF"/>
  <g id="k8s">
    <rect x="260" y="60" width="240" height="170" rx="12" fill="#F5F7FA" stroke="#D0D5DD" stroke-width="1.5"/>
    <text x="276" y="80" font-size="12" font-family="Inter, system-ui, -apple-system, sans-serif" fill="#475467" text-anchor="start" dominant-baseline="middle">Kubernetes Cluster</text>
  </g>
  <g id="svc">
    <rect x="500" y="60" width="480" height="490" rx="12" fill="#F5F7FA" stroke="#D0D5DD" stroke-width="1.5"/>
    <text x="516" y="80" font-size="12" font-family="Inter, system-ui, -apple-system, sans-serif" fill="#475467" text-anchor="start" dominant-baseline="middle">Services</text>
  </g>
  <g id="msg">
    <rect x="740" y="60" width="240" height="170" rx="12" fill="#F5F7FA" stroke="#D0D5DD" stroke-width="1.5"/>
    <text x="756" y="80" font-size="12" font-family="Inter, system-ui, -apple-system, sans-serif" fill="#475467" text-anchor="start" dominant-baseline="middle">Messaging</text>
  </g>
  <g id="storage">
    <rect x="740" y="60" width="480" height="650" rx="12" fill="#F5F7FA" stroke="#D0D5DD" stroke-width="1.5"/>
    <text x="756" y="80" font-size="12" font-family="Inter, system-ui, -apple-system, sans-serif" fill="#475467" text-anchor="start" dominant-baseline="middle">Storage</text>
  </g>
  <polyline points="220,160 300,160" fill="none" stroke="#667085" stroke-width="1.5" marker-end="url(#arrowhead)"/>
  <polyline points="220,320 300,160" fill="none" stroke="#667085" stroke-width="1.5" marker-end="url(#arrowhead)"/>
  <polyline points="460,160 540,160" fill="none" stroke="#667085" stroke-width="1.5" marker-end="url(#arrowhead)"/>
  <polyline points="460,160 540,480" fill="none" stroke="#667085" stroke-width="1.5" marker-end="url(#arrowhead)"/>
  <polyline points="460,160 540,320" fill="none" stroke="#667085" stroke-width="1.5" marker-end="url(#arrowhead)"/>
  <polyline points="700,320 780,320" fill="none" stroke="#667085" stroke-width="1.5" marker-end="url(#arrowhead)"/>
  <polyline points="700,320 780,160" fill="none" stroke="#667085" stroke-width="1.5" marker-end="url(#arrowhead)"/>
  <polyline points="700,160 780,640" fill="none" stroke="#667085" stroke-width="1.5" marker-end="url(#arrowhead)"/>
  <polyline points="700,480 780,480" fill="none" stroke="#667085" stroke-width="1.5" marker-end="url(#arrowhead)"/>
  <polyline points="700,320 780,480" fill="none" stroke="#667085" stroke-width="1.5" marker-end="url(#arrowhead)"/>
  <polyline points="940,320 1020,160" fill="none" stroke="#667085" stroke-width="1.5" marker-end="url(#arrowhead)"/>
  <g id="mobile">
    <rect x="60" y="130" width="160" height="60" rx="8" fill="#4A90D9" stroke="#2C5F8A" stroke-width="1.5"/>
    <text x="140" y="165" font-size="14" font-family="Inter, system-ui, -apple-system, sans-serif" fill="#FFFFFF" text-anchor="middle" dominant-baseline="middle">Mobile App</text>
  </g>
  <g id="web">
    <rect x="60" y="290" width="160" height="60" rx="8" fill="#4A90D9" stroke="#2C5F8A" stroke-width="1.5"/>
    <text x="140" y="325" font-size="14" font-family="Inter, system-ui, -apple-system, sans-serif" fill="#FFFFFF" text-anchor="middle" dominant-baseline="middle">Web App</text>
  </g>
  <g id="gw">
    <rect x="300" y="130" width="160" height="60" rx="8" fill="#4A90D9" stroke="#2C5F8A" stroke-width="1.5"/>
    <text x="380" y="165" font-size="14" font-family="Inter, system-ui, -apple-system, sans-serif" fill="#FFFFFF" text-anchor="middle" dominant-baseline="middle">API Gateway</text>
  </g>
  <g id="auth">
    <rect x="540" y="130" width="160" height="60" rx="8" fill="#4A90D9" stroke="#2C5F8A" stroke-width="1.5"/>
    <text x="620" y="165" font-size="14" font-family="Inter, system-ui, -apple-system, sans-serif" fill="#FFFFFF" text-anchor="middle" dominant-baseline="middle">Auth</text>
  </g>
  <g id="user">
    <rect x="540" y="450" width="160" height="60" rx="8" fill="#4A90D9" stroke="#2C5F8A" stroke-width="1.5"/>
    <text x="620" y="485" font-size="14" font-family="Inter, system-ui, -apple-system, sans-serif" fill="#FFFFFF" text-anchor="middle" dominant-baseline="middle">User</text>
  </g>
  <g id="order">
    <rect x="540" y="290" width="160" height="60" rx="8" fill="#4A90D9" stroke="#2C5F8A" stroke-width="1.5"/>
    <text x="620" y="325" font-size="14" font-family="Inter, system-ui, -apple-system, sans-serif" fill="#FFFFFF" text-anchor="middle" dominant-baseline="middle">Order</text>
  </g>
  <g id="payment">
    <rect x="780" y="290" width="160" height="60" rx="8" fill="#4A90D9" stroke="#2C5F8A" stroke-width="1.5"/>
    <text x="860" y="325" font-size="14" font-family="Inter, system-ui, -apple-system, sans-serif" fill="#FFFFFF" text-anchor="middle" dominant-baseline="middle">Payment</text>
  </g>
  <g id="kafka">
    <rect x="780" y="130" width="160" height="60" rx="8" fill="#4A90D9" stroke="#2C5F8A" stroke-width="1.5"/>
    <text x="860" y="165" font-size="14" font-family="Inter, system-ui, -apple-system, sans-serif" fill="#FFFFFF" text-anchor="middle" dominant-baseline="middle">Kafka</text>
  </g>
  <g id="pg">
    <rect x="780" y="450" width="160" height="60" rx="8" fill="#4A90D9" stroke="#2C5F8A" stroke-width="1.5"/>
    <text x="860" y="485" font-size="14" font-family="Inter, system-ui, -apple-system, sans-serif" fill="#FFFFFF" text-anchor="middle" dominant-baseline="middle">PostgreSQL</text>
  </g>
  <g id="mongo">
    <rect x="1020" y="130" width="160" height="60" rx="8" fill="#4A90D9" stroke="#2C5F8A" stroke-width="1.5"/>
    <text x="1100" y="165" font-size="14" font-family="Inter, system-ui, -apple-system, sans-serif" fill="#FFFFFF" text-anchor="middle" dominant-baseline="middle">MongoDB</text>
  </g>
  <g id="redis">
    <rect x="780" y="610" width="160" height="60" rx="8" fill="#4A90D9" stroke="#2C5F8A" stroke-width="1.5"/>
    <text x="860" y="645" font-size="14" font-family="Inter, system-ui, -apple-system, sans-serif" fill="#FFFFFF" text-anchor="middle" dominant-baseline="middle">Redis</text>
  </g>
</svg>
