<svg xmlns="http://www.w3.org/2000/svg" viewBox="0 0 1050 516" width="1050" height="516">
  <defs>
    <filter id="shadow" x="-4%" y="-4%" width="108%" height="116%">
      <feDropShadow dx="0" dy="2" stdDeviation="4" flood-color="#000000" flood-opacity="0.08"/>
    </filter>
    <marker id="arrowhead" markerWidth="8" markerHeight="6" refX="7" refY="3" orient="auto" markerUnits="strokeWidth">
      <path d="M0,0 L8,3 L0,6 L2,3 Z" fill="#565F89"/>
    </marker>
  </defs>
  <rect width="100%" height="100%" fill="#1A1B26"/>
  <g id="production_vpc">
    <rect x="250" y="60" width="740" height="396" rx="0" fill="rgba(140,79,255,0.04)" stroke="#8C4FFF" stroke-width="1.5" stroke-dasharray="6 3"/>
    <rect x="250" y="60" width="28" height="28" rx="0" fill="#8C4FFF"/>
    <svg x="252" y="62" width="24" height="24" viewBox="0 0 40 40" preserveAspectRatio="xMidYMid meet">
<title>Icon-Architecture-Group/32/Virtual-private-cloud-VPC_32</title>
    <g id="Icon-Architecture-Group/32/Virtual-private-cloud-VPC_32" stroke="none" stroke-width="1" fill="none" fill-rule="evenodd">
        <rect id="Rectangle" fill="#8C4FFF" x="0" y="0" width="40" height="40"></rect>
        <path d="M30.9707,21.0293596 L28.0267,19.7663596 L28.0267,30.2553596 C30.5717,29.9033596 30.9587,27.2873596 30.9747,27.1683596 L30.9707,21.0293596 Z M27.0267,30.2693596 L27.0267,19.7593596 L23.9917,21.0323596 L23.9917,27.2333596 C24.0047,27.2873596 24.4367,30.0003596 27.0267,30.2693596 L27.0267,30.2693596 Z M27.3327,18.5473596 C27.4567,18.4943596 27.5987,18.4953596 27.7237,18.5483596 L31.6677,20.2403596 C31.8517,20.3193596 31.9707,20.4993596 31.9707,20.6993596 L31.9707,27.2333596 C31.7877,28.6803596 30.6137,31.2963596 27.4437,31.2963596 C24.3687,31.2963596 23.1897,28.6843596 22.9957,27.3023596 L22.9917,20.6993596 C22.9917,20.4983596 23.1127,20.3163596 23.2977,20.2383596 L27.3327,18.5473596 Z M32.9827022,19.1843596 L27.5217,16.7783596 L21.9917,19.1053596 L21.9917,26.2333596 C21.9907,26.2753596 21.9377,29.1013596 23.6487,30.8563596 C24.5657,31.7973596 25.8427,32.2753596 27.4437,32.2753596 C29.0457,32.2753596 30.3307,31.7963596 31.2627,30.8533596 C32.9977,29.0953596 32.9827022,26.2683596 32.9827022,26.2403596 L32.9827022,19.1843596 Z M31.9797,31.5503596 C30.8527,32.6943596 29.3257,33.2753596 27.4437,33.2753596 C25.5597,33.2753596 24.0397,32.6943596 22.9267,31.5483596 C20.9217,29.4853596 20.9877,26.3513596 20.9917,26.2193596 L20.9917,18.7733596 C20.9917,18.5723596 21.1117,18.3903596 21.2967,18.3123596 L27.3317,15.7723596 C27.4587,15.7203596 27.6027,15.7193596 27.7277,15.7763596 L33.6837,18.4013596 C33.8657,18.4813596 33.9827,18.6603596 33.9827,18.8583596 L33.9827,26.2333596 C33.9847,26.3583596 34.0097,29.4883596 31.9797,31.5503596 L31.9797,31.5503596 Z M10.9917,24.2363596 L18.9917,24.2363596 L18.9917,25.2363596 L10.9917,25.2363596 C8.1807,25.2363596 6.1807,23.2203596 6.0127,20.2203596 C6.0007,20.1093596 5.9997,19.9753596 5.9997,19.8413596 C5.9997,17.3323596 7.3177,15.6183596 9.8167,14.8623596 C9.7977,14.6353596 9.7847,14.3963596 9.7847,14.2153596 C9.7847,11.2993596 11.3617,8.77035958 13.8017,7.77035958 C17.0997,6.42235958 20.8437,6.87635958 22.9077,8.87435958 C23.6527,9.59835958 24.2317,10.4163596 24.6677,11.3593596 C25.2767,10.9093596 26.0677,10.6983596 27.0167,10.7453596 C28.7967,10.8353596 30.1657,12.4583596 30.4497,14.7523596 C31.9477,14.8763596 32.9347,15.6353596 33.4597,17.0603596 L32.5227,17.4063596 C32.0947,16.2493596 31.3147,15.7333596 29.9917,15.7333596 C29.7267,15.7333596 29.5077,15.5273596 29.4917,15.2633596 C29.3537,12.9253596 28.0857,11.8003596 26.9657,11.7443596 C26.0207,11.6913596 25.3207,11.9633596 24.8867,12.5353596 C24.7757,12.6803596 24.6017,12.7523596 24.4137,12.7283596 C24.2337,12.7003596 24.0817,12.5773596 24.0187,12.4053596 C23.6147,11.3023596 23.0237,10.3823596 22.2117,9.59135958 C20.4237,7.86135958 17.1217,7.49235958 14.1807,8.69635958 C12.1177,9.54135958 10.7847,11.7073596 10.7847,14.2153596 C10.7847,14.4883596 10.8197,14.9113596 10.8507,15.1743596 C10.8807,15.4253596 10.7197,15.6583596 10.4747,15.7183596 C8.1687,16.2903596 6.9997,17.6773596 6.9997,19.8413596 C6.9997,19.9423596 6.9987,20.0423596 7.0087,20.1433596 C7.1497,22.6383596 8.7117,24.2363596 10.9917,24.2363596 L10.9917,24.2363596 Z" id="Fill-1" fill="#FFFFFF"></path>
    </g>
    </svg>
    <text x="286" y="75" font-size="11" font-family="'Inter', 'SF Pro Display', system-ui, -apple-system, sans-serif" fill="#A9B1D6" font-weight="600" text-anchor="start" dominant-baseline="middle">Production VPC</text>
  </g>
  <path d="M172,178 C260,178 260,178 348,178" fill="none" stroke="#565F89" stroke-width="1.5" stroke-linecap="round" marker-end="url(#arrowhead)"/>
  <path d="M412,178 C500,178 500,178 588,178" fill="none" stroke="#565F89" stroke-width="1.5" stroke-linecap="round" marker-end="url(#arrowhead)"/>
  <path d="M652,178 C740,178 740,348 828,348" fill="none" stroke="#565F89" stroke-width="1.5" stroke-linecap="round" marker-end="url(#arrowhead)"/>
  <path d="M652,178 C740,178 740,178 828,178" fill="none" stroke="#565F89" stroke-width="1.5" stroke-linecap="round" marker-end="url(#arrowhead)"/>
  <g id="cdn">
    <svg x="108" y="146" width="64" height="64" viewBox="0 0 64 64" preserveAspectRatio="xMidYMid meet">
<title>Icon-Architecture/48/Arch_Amazon-CloudFront_48</title>
    <g id="Icon-Architecture/48/Arch_Amazon-CloudFront_48" stroke="none" stroke-width="1" fill="none" fill-rule="evenodd">
        <g id="Icon-Architecture-BG/48/Networking-Content-Delivery" fill="#8C4FFF">
            <rect id="Rectangle" x="0" y="0" width="64" height="64"></rect>
        </g>
        <path d="M41.5,43.5 C40.397,43.5 39.5,42.603 39.5,41.5 C39.5,40.397 40.397,39.5 41.5,39.5 C42.603,39.5 43.5,40.397 43.5,41.5 C43.5,42.603 42.603,43.5 41.5,43.5 L41.5,43.5 Z M41.5,37.5 C39.294,37.5 37.5,39.294 37.5,41.5 C37.5,43.706 39.294,45.5 41.5,45.5 C43.706,45.5 45.5,43.706 45.5,41.5 C45.5,39.294 43.706,37.5 41.5,37.5 L41.5,37.5 Z M22.5,32.5 C21.397,32.5 20.5,31.603 20.5,30.5 C20.5,29.397 21.397,28.5 22.5,28.5 C23.603,28.5 24.5,29.397 24.5,30.5 C24.5,31.603 23.603,32.5 22.5,32.5 L22.5,32.5 Z M22.5,26.5 C20.294,26.5 18.5,28.294 18.5,30.5 C18.5,32.706 20.294,34.5 22.5,34.5 C24.706,34.5 26.5,32.706 26.5,30.5 C26.5,28.294 24.706,26.5 22.5,26.5 L22.5,26.5 Z M45.389,47.124 C45.168,46.607 44.936,46.094 44.685,45.591 L42.896,46.486 C43.17,47.035 43.42,47.599 43.656,48.165 C42.82,48.762 41.943,49.288 41.028,49.74 C41.384,48.865 41.694,47.975 41.974,47.012 L40.054,46.454 C39.564,48.134 38.985,49.581 38.184,51.133 C36.357,51.698 34.452,52 32.5,52 C29.465,52 26.567,51.314 23.871,49.976 C22.503,46.615 21.838,43.534 21.838,40.559 C21.838,39.267 22.063,38.196 22.322,36.956 C22.386,36.652 22.45,36.343 22.514,36.024 L20.551,35.638 C20.49,35.949 20.427,36.25 20.365,36.545 C20.094,37.838 19.838,39.06 19.838,40.559 C19.838,43.074 20.274,45.644 21.154,48.354 C16.072,44.724 13,38.854 13,32.5 C13,32.389 13.01,32.273 13.012,32.161 C14.642,31.799 16.123,31.614 17.854,31.571 L17.804,29.572 C16.169,29.612 14.694,29.779 13.163,30.084 C14.081,22.683 19.212,16.394 26.323,14.019 C27.873,14.818 29.02,15.524 30.135,16.37 L31.344,14.776 C30.646,14.248 29.934,13.771 29.146,13.299 C30.244,13.108 31.363,13 32.5,13 C35.032,13 37.532,13.494 39.849,14.439 C39.342,14.593 38.82,14.763 38.243,14.971 L38.923,16.852 C40.316,16.349 41.408,16.04 42.571,15.821 C48.399,19.341 52,25.667 52,32.5 C52,38.156 49.605,43.416 45.389,47.124 L45.389,47.124 Z M43.008,13.749 C39.826,11.95 36.192,11 32.5,11 C30.392,11 28.324,11.301 26.357,11.895 C17.723,14.464 11.568,22.23 11.045,31.196 C11.01,31.625 11,32.062 11,32.5 C11,40.444 15.352,47.707 22.354,51.455 C25.459,53.12 28.968,54 32.5,54 C34.892,54 37.229,53.61 39.437,52.843 C41.684,52.086 43.773,50.963 45.646,49.507 C50.955,45.399 54,39.2 54,32.5 C54,24.732 49.787,17.546 43.008,13.749 L43.008,13.749 Z M38.384,37.411 L37.003,38.858 C34.022,36.015 31.047,34.146 27.637,32.975 L28.287,31.083 C31.979,32.351 35.188,34.362 38.384,37.411 L38.384,37.411 Z M38.444,22.364 C41.282,26.692 42.88,31.444 43.193,36.488 L41.197,36.612 C40.905,31.919 39.417,27.495 36.772,23.46 L38.444,22.364 Z M26.451,26.797 L24.773,25.708 C26.316,23.332 27.639,21.758 29.336,20.278 L30.65,21.786 C29.103,23.135 27.886,24.587 26.451,26.797 L26.451,26.797 Z M34.5,16.5 C35.603,16.5 36.5,17.397 36.5,18.5 C36.5,19.603 35.603,20.5 34.5,20.5 C33.397,20.5 32.5,19.603 32.5,18.5 C32.5,17.397 33.397,16.5 34.5,16.5 L34.5,16.5 Z M34.5,22.5 C36.706,22.5 38.5,20.706 38.5,18.5 C38.5,16.294 36.706,14.5 34.5,14.5 C32.294,14.5 30.5,16.294 30.5,18.5 C30.5,20.706 32.294,22.5 34.5,22.5 L34.5,22.5 Z" id="Amazon-CloudFront_Icon_48_Squid" fill="#FFFFFF"></path>
    </g>
    </svg>
    <text x="140" y="224" font-size="13" font-family="'Inter', 'SF Pro Display', system-ui, -apple-system, sans-serif" fill="#A9B1D6" font-weight="500" text-anchor="middle" dominant-baseline="middle">CDN</text>
  </g>
  <g id="load_balancer">
    <svg x="348" y="146" width="64" height="64" viewBox="0 0 64 64" preserveAspectRatio="xMidYMid meet">
<title>Icon-Architecture/48/Arch_Elastic-Load-Balancing_48</title>
    <g id="Icon-Architecture/48/Arch_Elastic-Load-Balancing_48" stroke="none" stroke-width="1" fill="none" fill-rule="evenodd">
        <g id="Icon-Architecture-BG/48/Networking-Content-Delivery" fill="#8C4FFF">
            <rect id="Rectangle" x="0" y="0" width="64" height="64"></rect>
        </g>
        <path d="M23.5,42 C17.71,42 13,37.29 13,31.5 C13,25.71 17.71,21 23.5,21 C29.29,21 34,25.71 34,31.5 C34,37.29 29.29,42 23.5,42 M48,48 C48,49.654 46.654,51 45,51 C43.346,51 42,49.654 42,48 C42,46.346 43.346,45 45,45 C46.654,45 48,46.346 48,48 M45,13 C46.654,13 48,14.346 48,16 C48,17.654 46.654,19 45,19 C43.346,19 42,17.654 42,16 C42,14.346 43.346,13 45,13 M48,29 C49.654,29 51,30.346 51,32 C51,33.654 49.654,35 48,35 C46.346,35 45,33.654 45,32 C45,30.346 46.346,29 48,29 M35.901,33 L43.102,33 C43.565,35.279 45.586,37 48,37 C50.757,37 53,34.757 53,32 C53,29.243 50.757,27 48,27 C45.586,27 43.565,28.721 43.102,31 L35.975,31 C35.916,29.541 35.614,28.146 35.096,26.856 L42.799,20.467 C43.466,20.797 44.206,21 45,21 C47.757,21 50,18.757 50,16 C50,13.243 47.757,11 45,11 C42.243,11 40,13.243 40,16 C40,17.224 40.459,18.331 41.191,19.201 L34.172,25.024 C31.977,21.42 28.021,19 23.5,19 C16.607,19 11,24.607 11,31.5 C11,38.393 16.607,44 23.5,44 C27.743,44 31.493,41.871 33.754,38.629 L41.191,44.799 C40.459,45.669 40,46.776 40,48 C40,50.757 42.243,53 45,53 C47.757,53 50,50.757 50,48 C50,45.243 47.757,43 45,43 C44.206,43 43.466,43.203 42.799,43.533 L34.77,36.873 C35.344,35.673 35.736,34.373 35.901,33" id="Elastic-Load-Balancing_Icon_48_Squid" fill="#FFFFFF"></path>
    </g>
    </svg>
    <text x="380" y="224" font-size="13" font-family="'Inter', 'SF Pro Display', system-ui, -apple-system, sans-serif" fill="#A9B1D6" font-weight="500" text-anchor="middle" dominant-baseline="middle">Load Balancer</text>
  </g>
  <g id="app_server">
    <svg x="588" y="146" width="64" height="64" viewBox="0 0 64 64" preserveAspectRatio="xMidYMid meet">
<title>Icon-Architecture/48/Arch_Amazon-Elastic-Container-Service_48</title>
    <g id="Icon-Architecture/48/Arch_Amazon-Elastic-Container-Service_48" stroke="none" stroke-width="1" fill="none" fill-rule="evenodd">
        <g id="Icon-Architecture-BG/48/Compute" fill="#ED7100">
            <rect id="Rectangle" x="0" y="0" width="64" height="64"></rect>
        </g>
        <path d="M50,36.3822466 L44,33.3822885 L44,25.0004058 C44,24.6374109 43.803,24.3024156 43.485,24.1264181 L35,19.412484 L35,12.7495773 L50,21.5724538 L50,36.3822466 Z M51.507,20.1384739 L34.507,10.1386138 C34.199,9.95761637 33.815,9.95461641 33.504,10.1326139 C33.192,10.3106114 33,10.6416068 33,11.0006018 L33,20.0004758 C33,20.3634707 33.197,20.6984661 33.515,20.8744636 L42,25.5883976 L42,34.0002799 C42,34.3792746 42.214,34.7252697 42.553,34.8952674 L50.553,38.8952114 C50.694,38.9652104 50.847,39.0002099 51,39.0002099 C51.183,39.0002099 51.365,38.9502106 51.525,38.851212 C51.82,38.6682146 52,38.3472191 52,38.0002239 L52,21.0004618 C52,20.6464668 51.812,20.3184714 51.507,20.1384739 L51.507,20.1384739 Z M32,51.8280304 L15,41.4391758 L15,21.5544541 L29,12.8045765 L29,19.4464836 L21.47,24.1524177 C21.178,24.3354152 21,24.6554107 21,25.0004058 L21,38.0002239 C21,38.351219 21.185,38.6772144 21.485,38.8572119 L31.485,44.857128 C31.789,45.0401254 32.167,45.0481253 32.479,44.8781277 L42.988,39.1462079 L48.035,42.0291675 L32,51.8280304 Z M50.496,41.1321801 L43.496,37.1322361 C43.194,36.9592385 42.825,36.9562385 42.521,37.1222362 L32.023,42.8481561 L23,37.4342318 L23,25.5543981 L30.53,20.848464 C30.822,20.6654665 31,20.345471 31,20.0004758 L31,11.0006018 C31,10.6366069 30.803,10.3026115 30.484,10.125614 C30.168,9.9486165 29.778,9.95961634 29.47,10.1526136 L13.47,20.1524737 C13.178,20.3354711 13,20.6554667 13,21.0004618 L13,42.0001679 C13,42.3481631 13.182,42.6711585 13.479,42.854156 L31.479,53.854002 C31.639,53.9510007 31.819,54 32,54 C32.181,54 32.361,53.9510007 32.521,53.854002 L50.521,42.854156 C50.823,42.6691586 51.005,42.3391632 51.0001004,41.9851681 C50.995,41.6321731 50.803,41.3071776 50.496,41.1321801 L50.496,41.1321801 Z" id="Amazon-Elastic-Container-Service_Icon_48_Squid" fill="#FFFFFF"></path>
    </g>
    </svg>
    <text x="620" y="224" font-size="13" font-family="'Inter', 'SF Pro Display', system-ui, -apple-system, sans-serif" fill="#A9B1D6" font-weight="500" text-anchor="middle" dominant-baseline="middle">App Server</text>
  </g>
  <g id="database">
    <svg x="828" y="316" width="64" height="64" viewBox="0 0 64 64" preserveAspectRatio="xMidYMid meet">
<title>Icon-Architecture/48/Arch_Amazon-RDS_48</title>
    <g id="Icon-Architecture/48/Arch_Amazon-RDS_48" stroke="none" stroke-width="1" fill="none" fill-rule="evenodd">
        <g id="Icon-Architecture-BG/48/Database" fill="#C925D1">
            <rect id="Rectangle" x="0" y="0" width="64" height="64"></rect>
        </g>
        <path d="M54,11 L54,19 L52,19 L52,13.414 L45.707,19.707 L44.293,18.293 L50.586,12 L45.125,12 L45.125,10 L53,10 C53.553,10 54,10.448 54,11 L54,11 Z M12,18.875 L10,18.875 L10,11 C10,10.448 10.447,10 11,10 L19,10 L19,12 L13.414,12 L19.707,18.293 L18.293,19.707 L12,13.414 L12,18.875 Z M19.707,45.707 L13.414,52 L18.875,52 L18.875,54 L11,54 C10.447,54 10,53.552 10,53 L10,45 L12,45 L12,50.586 L18.293,44.293 L19.707,45.707 Z M51.5,31.781 C51.5,29.352 48.634,26.932 43.833,25.307 L44.474,23.413 C50.21,25.354 53.5,28.404 53.5,31.781 C53.5,35.158 50.21,38.208 44.474,40.15 L43.833,38.255 C48.634,36.631 51.5,34.21 51.5,31.781 L51.5,31.781 Z M12.543,31.781 C12.543,34.105 15.224,36.46 19.715,38.081 L19.035,39.961 C13.639,38.014 10.543,35.033 10.543,31.781 C10.543,28.53 13.639,25.548 19.035,23.601 L19.715,25.482 C15.224,27.103 12.543,29.458 12.543,31.781 L12.543,31.781 Z M52,45.125 L54,45.125 L54,53 C54,53.552 53.553,54 53,54 L45,54 L45,52 L50.586,52 L44.293,45.707 L45.707,44.293 L52,50.586 L52,45.125 Z M32.022,31.402 C26.999,31.402 24.126,30.059 24,29.483 L24,26.257 C26.159,27.266 29.609,27.593 32,27.593 C34.391,27.593 37.841,27.266 40,26.257 L40,29.483 C39.894,30.057 37.051,31.402 32.022,31.402 L32.022,31.402 Z M32.022,37.13 C26.999,37.13 24.126,35.786 24,35.21 L24,31.956 C25.953,32.937 29.055,33.402 32.022,33.402 C34.973,33.402 38.055,32.938 40,31.96 L40,35.21 C39.894,35.785 37.052,37.13 32.022,37.13 L32.022,37.13 Z M32,42.268 C26.95,42.268 24.104,40.917 24,40.346 L24,37.683 C25.953,38.665 29.055,39.13 32.022,39.13 C34.973,39.13 38.055,38.666 40,37.687 L40,40.342 C39.896,40.917 37.05,42.268 32,42.268 L32,42.268 Z M32,22.193 C36.971,22.193 39.642,23.37 39.982,23.894 C39.642,24.417 36.971,25.593 32,25.593 C26.909,25.593 24.233,24.361 24,23.949 L24,23.93 C24.233,23.426 26.909,22.193 32,22.193 L32,22.193 Z M32,20.193 C28.286,20.193 22,20.973 22,23.894 L22,40.346 C22,43.041 27.184,44.268 32,44.268 C36.816,44.268 42,43.041 42,40.346 L42,23.894 C42,20.973 35.714,20.193 32,20.193 L32,20.193 Z" id="Amazon-RDS_Icon_48_Squid" fill="#FFFFFF"></path>
    </g>
    </svg>
    <text x="860" y="394" font-size="13" font-family="'Inter', 'SF Pro Display', system-ui, -apple-system, sans-serif" fill="#A9B1D6" font-weight="500" text-anchor="middle" dominant-baseline="middle">Database</text>
  </g>
  <g id="cache">
    <svg x="828" y="146" width="64" height="64" viewBox="0 0 64 64" preserveAspectRatio="xMidYMid meet">
<title>Icon-Architecture/48/Arch_Amazon-ElastiCache_48</title>
    <g id="Icon-Architecture/48/Arch_Amazon-ElastiCache_48" stroke="none" stroke-width="1" fill="none" fill-rule="evenodd">
        <g id="Icon-Architecture-BG/48/Database" fill="#C925D1">
            <rect id="Rectangle" x="0" y="0" width="64" height="64"></rect>
        </g>
        <path d="M40.05,35.2787365 L40.05,30.6209876 C38.062,31.7238753 34.856,32.240291 31.664,32.240291 C28.314,32.240291 25.639,31.6868455 23.95,30.7240706 L23.95,35.2787365 C23.95,36.2315034 26.402,37.6426392 31.664,37.6426392 C37.17,37.6426392 40.05,36.1034003 40.05,35.2787365 L40.05,35.2787365 Z M40.05,42.0081529 L40.05,38.0249469 C38.062,39.1278346 34.856,39.6442503 31.664,39.6442503 C28.314,39.6442503 25.639,39.0908048 23.95,38.1270291 L23.95,42.0091537 C23.95,42.9619206 26.402,44.3720556 31.664,44.3720556 C37.17,44.3720556 40.05,42.8328167 40.05,42.0081529 L40.05,42.0081529 Z M40.05,48.6635097 L40.05,44.7543633 C38.062,45.857251 34.856,46.3736666 31.664,46.3736666 C28.314,46.3736666 25.639,45.8202212 23.95,44.8574462 L23.95,48.6635097 C23.95,49.6422975 26.632,50.9983889 31.667,50.9983889 C37.171,50.9983889 40.05,49.4781654 40.05,48.6635097 L40.05,48.6635097 Z M23.95,27.8747773 C23.95,28.8655747 26.631,30.2386799 31.664,30.2386799 C37.17,30.2386799 40.05,28.699441 40.05,27.8747773 C40.05,27.0501135 37.17,25.5108746 31.664,25.5108746 C26.631,25.5108746 23.95,26.8839798 23.95,27.8747773 L23.95,27.8747773 Z M42.05,27.8747773 C42.05,27.9248175 42.037,27.9708546 42.034,28.0198941 L42.05,28.0198941 L42.05,48.6635097 C42.05,51.6589206 36.835,53 31.667,53 C25.765,53 21.95,51.2976298 21.95,48.6635097 L21.95,28.0188933 L21.963,28.0188933 C21.961,27.9708546 21.95,27.9238167 21.95,27.8747773 C21.95,25.2226426 25.763,23.5092636 31.664,23.5092636 C36.834,23.5092636 42.05,24.8583494 42.05,27.8747773 L42.05,27.8747773 Z M53,18.0048332 C53.553,18.0048332 54,17.5564723 54,17.0040276 L54,13.0008055 C54,12.4483609 53.553,12 53,12 L11,12 C10.447,12 10,12.4483609 10,13.0008055 L10,17.0040276 C10,17.5564723 10.447,18.0048332 11,18.0048332 C11.827,18.0048332 12.5,18.6783753 12.5,19.5060414 C12.5,20.3337076 11.827,21.0072497 11,21.0072497 C10.447,21.0072497 10,21.4546098 10,22.0080553 L10,38.0209437 C10,38.5733883 10.447,39.0217492 11,39.0217492 L19,39.0217492 L19,37.0201382 L15,37.0201382 L15,35.0185271 L19,35.0185271 L19,33.0169161 L14,33.0169161 C13.447,33.0169161 13,33.4652769 13,34.0177216 L13,37.0201382 L12,37.0201382 L12,22.8627432 C13.445,22.431396 14.5,21.0893158 14.5,19.5060414 C14.5,17.9217663 13.445,16.5796861 12,16.1483389 L12,14.0016111 L52,14.0016111 L52,16.1483389 C50.556,16.5796861 49.5,17.9217663 49.5,19.5060414 C49.5,21.0893158 50.556,22.431396 52,22.8627432 L52,37.0201382 L51,37.0201382 L51,34.0177216 C51,33.4652769 50.553,33.0169161 50,33.0169161 L45,33.0169161 L45,35.0185271 L49,35.0185271 L49,37.0201382 L45,37.0201382 L45,39.0217492 L53,39.0217492 C53.553,39.0217492 54,38.5733883 54,38.0209437 L54,22.0080553 C54,21.4546098 53.553,21.0072497 53,21.0072497 C52.173,21.0072497 51.5,20.3337076 51.5,19.5060414 C51.5,18.6783753 52.173,18.0048332 53,18.0048332 L53,18.0048332 Z M22,23.0088608 L22,17.0040276 C22,16.451583 21.553,16.0032221 21,16.0032221 L17,16.0032221 C16.447,16.0032221 16,16.451583 16,17.0040276 L16,30.0144995 C16,30.5669441 16.447,31.015305 17,31.015305 L19,31.015305 L19,29.0136939 L18,29.0136939 L18,18.0048332 L20,18.0048332 L20,23.0088608 L22,23.0088608 Z M46,29.0136939 L45,29.0136939 L45,31.015305 L47,31.015305 C47.553,31.015305 48,30.5669441 48,30.0144995 L48,17.0040276 C48,16.451583 47.553,16.0032221 47,16.0032221 L43,16.0032221 C42.447,16.0032221 42,16.451583 42,17.0040276 L42,23.0088608 L44,23.0088608 L44,18.0048332 L46,18.0048332 L46,29.0136939 Z M40,22.0080553 L40,17.0040276 C40,16.451583 39.553,16.0032221 39,16.0032221 L34,16.0032221 C33.447,16.0032221 33,16.451583 33,17.0040276 L33,21.0072497 L35,21.0072497 L35,18.0048332 L38,18.0048332 L38,22.0080553 L40,22.0080553 Z M29,21.0072497 L29,18.0048332 L26,18.0048332 L26,22.0080553 L24,22.0080553 L24,17.0040276 C24,16.451583 24.447,16.0032221 25,16.0032221 L30,16.0032221 C30.553,16.0032221 31,16.451583 31,17.0040276 L31,21.0072497 L29,21.0072497 Z" id="Amazon-ElastiCache_Icon_48_Squid" fill="#FFFFFF"></path>
    </g>
    </svg>
    <text x="860" y="224" font-size="13" font-family="'Inter', 'SF Pro Display', system-ui, -apple-system, sans-serif" fill="#A9B1D6" font-weight="500" text-anchor="middle" dominant-baseline="middle">Cache</text>
  </g>
</svg>
