<svg xmlns="http://www.w3.org/2000/svg" viewBox="0 0 1170 898" width="1170" height="898">
  <defs>
    <filter id="shadow" x="-4%" y="-4%" width="108%" height="116%">
      <feDropShadow dx="0" dy="2" stdDeviation="4" flood-color="#000000" flood-opacity="0.08"/>
    </filter>
    <marker id="arrowhead" markerWidth="8" markerHeight="6" refX="7" refY="3" orient="auto" markerUnits="strokeWidth">
      <path d="M0,0 L8,3 L0,6 L2,3 Z" fill="#FDBA74"/>
    </marker>
  </defs>
  <rect width="100%" height="100%" fill="#FFFBF5"/>
  <g id="kubernetes">
    <rect x="290" y="60" width="820" height="778" rx="16" fill="rgba(249, 115, 22, 0.06)" stroke="#FED7AA" stroke-width="1.5"/>
    <text x="306" y="80" font-size="11" font-family="'Inter', 'SF Pro Display', system-ui, -apple-system, sans-serif" fill="#9A3412" font-weight="600" text-anchor="start" dominant-baseline="middle">Kubernetes</text>
  </g>
  <g id="data_layer">
    <rect x="850" y="60" width="260" height="778" rx="16" fill="rgba(239, 68, 68, 0.06)" stroke="#FED7AA" stroke-width="1.5"/>
    <text x="866" y="80" font-size="11" font-family="'Inter', 'SF Pro Display', system-ui, -apple-system, sans-serif" fill="#9A3412" font-weight="600" text-anchor="start" dominant-baseline="middle">Data Layer</text>
  </g>
  <path d="M220,176 C280,176 280,176 340,176" fill="none" stroke="#FDBA74" stroke-width="1.5" stroke-linecap="round" marker-end="url(#arrowhead)"/>
  <path d="M220,370 C280,370 280,176 340,176" fill="none" stroke="#FDBA74" stroke-width="1.5" stroke-linecap="round" marker-end="url(#arrowhead)"/>
  <path d="M500,176 C560,176 560,176 620,176" fill="none" stroke="#FDBA74" stroke-width="1.5" stroke-linecap="round" marker-end="url(#arrowhead)"/>
  <path d="M500,176 C560,176 560,564 620,564" fill="none" stroke="#FDBA74" stroke-width="1.5" stroke-linecap="round" marker-end="url(#arrowhead)"/>
  <path d="M780,564 C840,564 840,564 900,564" fill="none" stroke="#FDBA74" stroke-width="1.5" stroke-linecap="round" marker-end="url(#arrowhead)"/>
  <path d="M500,176 C560,176 560,370 620,370" fill="none" stroke="#FDBA74" stroke-width="1.5" stroke-linecap="round" marker-end="url(#arrowhead)"/>
  <path d="M780,370 C840,370 840,564 900,564" fill="none" stroke="#FDBA74" stroke-width="1.5" stroke-linecap="round" marker-end="url(#arrowhead)"/>
  <path d="M780,370 C840,370 840,370 900,370" fill="none" stroke="#FDBA74" stroke-width="1.5" stroke-linecap="round" marker-end="url(#arrowhead)"/>
  <path d="M780,370 C840,370 840,176 900,176" fill="none" stroke="#FDBA74" stroke-width="1.5" stroke-linecap="round" marker-end="url(#arrowhead)"/>
  <path d="M780,176 C840,176 840,758 900,758" fill="none" stroke="#FDBA74" stroke-width="1.5" stroke-linecap="round" marker-end="url(#arrowhead)"/>
  <g id="mobile_app">
    <rect x="60" y="146" width="160" height="60" rx="10" fill="#F97316" stroke="#EA580C" stroke-width="1" filter="url(#shadow)"/>
    <text x="140" y="177" font-size="13" font-family="'Inter', 'SF Pro Display', system-ui, -apple-system, sans-serif" fill="#FFFFFF" font-weight="600" text-anchor="middle" dominant-baseline="middle">Mobile App</text>
  </g>
  <g id="gateway">
    <rect x="340" y="146" width="160" height="60" rx="10" fill="#EF4444" stroke="#DC2626" stroke-width="1" filter="url(#shadow)"/>
    <text x="420" y="177" font-size="13" font-family="'Inter', 'SF Pro Display', system-ui, -apple-system, sans-serif" fill="#FFFFFF" font-weight="600" text-anchor="middle" dominant-baseline="middle">Gateway</text>
  </g>
  <g id="web_app">
    <rect x="60" y="340" width="160" height="60" rx="10" fill="#F59E0B" stroke="#D97706" stroke-width="1" filter="url(#shadow)"/>
    <text x="140" y="371" font-size="13" font-family="'Inter', 'SF Pro Display', system-ui, -apple-system, sans-serif" fill="#FFFFFF" font-weight="600" text-anchor="middle" dominant-baseline="middle">Web App</text>
  </g>
  <g id="auth">
    <rect x="620" y="146" width="160" height="60" rx="10" fill="#EC4899" stroke="#DB2777" stroke-width="1" filter="url(#shadow)"/>
    <text x="700" y="177" font-size="13" font-family="'Inter', 'SF Pro Display', system-ui, -apple-system, sans-serif" fill="#FFFFFF" font-weight="600" text-anchor="middle" dominant-baseline="middle">Auth</text>
  </g>
  <g id="users">
    <rect x="620" y="534" width="160" height="60" rx="10" fill="#F43F5E" stroke="#E11D48" stroke-width="1" filter="url(#shadow)"/>
    <text x="700" y="565" font-size="13" font-family="'Inter', 'SF Pro Display', system-ui, -apple-system, sans-serif" fill="#FFFFFF" font-weight="600" text-anchor="middle" dominant-baseline="middle">Users</text>
  </g>
  <g id="postgresql">
    <rect x="900" y="534" width="160" height="60" rx="10" fill="#A855F7" stroke="#9333EA" stroke-width="1" filter="url(#shadow)"/>
    <text x="980" y="565" font-size="13" font-family="'Inter', 'SF Pro Display', system-ui, -apple-system, sans-serif" fill="#FFFFFF" font-weight="600" text-anchor="middle" dominant-baseline="middle">PostgreSQL</text>
  </g>
  <g id="orders">
    <rect x="620" y="340" width="160" height="60" rx="10" fill="#F97316" stroke="#EA580C" stroke-width="1" filter="url(#shadow)"/>
    <text x="700" y="371" font-size="13" font-family="'Inter', 'SF Pro Display', system-ui, -apple-system, sans-serif" fill="#FFFFFF" font-weight="600" text-anchor="middle" dominant-baseline="middle">Orders</text>
  </g>
  <g id="payments">
    <rect x="900" y="340" width="160" height="60" rx="10" fill="#EF4444" stroke="#DC2626" stroke-width="1" filter="url(#shadow)"/>
    <text x="980" y="371" font-size="13" font-family="'Inter', 'SF Pro Display', system-ui, -apple-system, sans-serif" fill="#FFFFFF" font-weight="600" text-anchor="middle" dominant-baseline="middle">Payments</text>
  </g>
  <g id="kafka">
    <rect x="900" y="146" width="160" height="60" rx="10" fill="#F59E0B" stroke="#D97706" stroke-width="1" filter="url(#shadow)"/>
    <text x="980" y="177" font-size="13" font-family="'Inter', 'SF Pro Display', system-ui, -apple-system, sans-serif" fill="#FFFFFF" font-weight="600" text-anchor="middle" dominant-baseline="middle">Kafka</text>
  </g>
  <g id="redis">
    <rect x="900" y="728" width="160" height="60" rx="10" fill="#EC4899" stroke="#DB2777" stroke-width="1" filter="url(#shadow)"/>
    <text x="980" y="759" font-size="13" font-family="'Inter', 'SF Pro Display', system-ui, -apple-system, sans-serif" fill="#FFFFFF" font-weight="600" text-anchor="middle" dominant-baseline="middle">Redis</text>
  </g>
</svg>
