<svg xmlns="http://www.w3.org/2000/svg" viewBox="0 0 1480 210" width="1480" height="210">
  <defs>
    <filter id="shadow" x="-4%" y="-4%" width="108%" height="116%">
      <feDropShadow dx="0" dy="2" stdDeviation="4" flood-color="#000000" flood-opacity="0.08"/>
    </filter>
    <marker id="arrowhead" markerWidth="8" markerHeight="6" refX="7" refY="3" orient="auto" markerUnits="strokeWidth">
      <path d="M0,0 L8,3 L0,6 L2,3 Z" fill="#7DD3FC"/>
    </marker>
  </defs>
  <rect width="100%" height="100%" fill="#F0F9FF"/>
  <path d="M172,92 C260,92 260,92 348,92" fill="none" stroke="#7DD3FC" stroke-width="1.5" stroke-linecap="round" marker-end="url(#arrowhead)"/>
  <path d="M412,92 C500,92 500,92 588,92" fill="none" stroke="#7DD3FC" stroke-width="1.5" stroke-linecap="round" marker-end="url(#arrowhead)"/>
  <path d="M652,92 C980,92 980,92 1308,92" fill="none" stroke="#7DD3FC" stroke-width="1.5" stroke-linecap="round" marker-end="url(#arrowhead)"/>
  <path d="M652,92 C740,92 740,92 828,92" fill="none" stroke="#7DD3FC" stroke-width="1.5" stroke-linecap="round" marker-end="url(#arrowhead)"/>
  <path d="M892,92 C980,92 980,92 1068,92" fill="none" stroke="#7DD3FC" stroke-width="1.5" stroke-linecap="round" marker-end="url(#arrowhead)"/>
  <path d="M1132,92 C1220,92 1220,92 1308,92" fill="none" stroke="#7DD3FC" stroke-width="1.5" stroke-linecap="round" marker-end="url(#arrowhead)"/>
  <g id="api_gateway">
    <svg x="108" y="60" width="64" height="64" viewBox="0 0 64 64" preserveAspectRatio="xMidYMid meet">
<g id="Icon-Architecture/48/Arch_Amazon-API-Gateway_48">
<g id="Icon-Architecture-BG/48/Networking-Content-Delivery">
<rect id="Rectangle" width="64" height="64" fill="#8C4FFF"/>
</g>
<g id="Icon-Service/48/Amazon-API-Gateway_48">
<path id="Amazon-API-Gateway_Icon_48_Squid" fill-rule="evenodd" clip-rule="evenodd" d="M28 43.9999H31V41.9999H28V43.9999ZM33 43.9999H36V41.9999H33V43.9999ZM28 21.9998H31V19.9998H28V21.9998ZM33 21.9998H36V19.9998H33V21.9998ZM22 12.7408L12 18.5738V46.382L22 51.382V12.7408ZM24 19.9998H26V21.9998H24V41.9999H26V43.9999H24V53C24 53.347 23.82 53.668 23.525 53.851C23.365 53.95 23.183 54 23 54C22.847 54 22.694 53.965 22.553 53.895L10.553 47.895C10.214 47.725 10 47.379 10 47V17.9998C10 17.6448 10.188 17.3148 10.496 17.1358L22.496 10.1358C22.805 9.95575 23.188 9.95475 23.498 10.1328C23.809 10.3108 24 10.6418 24 10.9998V19.9998ZM52 18.5738L42 12.7408V51.382L52 46.382V18.5738ZM54 17.9998V47C54 47.379 53.786 47.725 53.447 47.895L41.447 53.895C41.306 53.965 41.153 54 41 54C40.817 54 40.635 53.95 40.475 53.851C40.18 53.668 40 53.347 40 53V43.9999H38V41.9999H40V21.9998H38V19.9998H40V10.9998C40 10.6418 40.191 10.3108 40.502 10.1328C40.812 9.95575 41.195 9.95575 41.504 10.1358L53.504 17.1358C53.812 17.3148 54 17.6448 54 17.9998ZM34.939 27.3419L33.061 26.6578L29.061 37.6579L30.939 38.3419L34.939 27.3419ZM39.707 32.7069C40.098 32.3159 40.098 31.6839 39.707 31.2929L36.707 28.2929L35.293 29.7069L37.586 31.9999L35.293 34.2929L36.707 35.7069L39.707 32.7069ZM27.293 35.7069L24.293 32.7069C23.902 32.3159 23.902 31.6839 24.293 31.2929L27.293 28.2929L28.707 29.7069L26.414 31.9999L28.707 34.2929L27.293 35.7069Z" fill="white"/>
</g>
</g>
    </svg>
    <text x="140" y="138" font-size="13" font-family="'Inter', 'SF Pro Display', system-ui, -apple-system, sans-serif" fill="#0369A1" font-weight="500" text-anchor="middle" dominant-baseline="middle">API Gateway</text>
  </g>
  <g id="auth">
    <svg x="348" y="60" width="64" height="64" viewBox="0 0 64 64" preserveAspectRatio="xMidYMid meet">
<title>Icon-Architecture/48/Arch_AWS-Lambda_48</title>
    <g id="Icon-Architecture/48/Arch_AWS-Lambda_48" stroke="none" stroke-width="1" fill="none" fill-rule="evenodd">
        <g id="Icon-Architecture-BG/48/Compute" fill="#ED7100">
            <rect id="Rectangle" x="0" y="0" width="64" height="64"></rect>
        </g>
        <path d="M22.6794094,52 L13.5740701,52 L23.8376189,30.41 L28.3997494,39.861 L22.6794094,52 Z M24.7269406,27.667 C24.5606285,27.321 24.2120702,27.103 23.8306478,27.103 L23.8276601,27.103 C23.4452418,27.104 23.0966835,27.325 22.9323632,27.672 L11.0973143,52.569 C10.9499239,52.879 10.9708374,53.243 11.1540795,53.534 C11.3353298,53.824 11.6540117,54 11.9955989,54 L23.309802,54 C23.695208,54 24.0447622,53.777 24.2100784,53.428 L30.4044577,40.284 C30.5329264,40.01 30.5319305,39.692 30.3994783,39.42 L24.7269406,27.667 Z M51.0082382,52 L41.985557,52 L26.9547262,19.578 C26.7914017,19.226 26.4388599,19 26.0524581,19 L20.1279625,19 L20.1349337,12 L31.8146251,12 L46.7747483,44.42 C46.9380728,44.774 47.2906147,45 47.6790082,45 L51.0082382,45 L51.0082382,52 Z M52.0041191,43 L48.3143803,43 L33.354257,10.58 C33.1909326,10.226 32.8383907,10 32.450993,10 L19.1400486,10 C18.5913182,10 18.1451636,10.447 18.1441677,10.999 L18.1362006,19.999 C18.1362006,20.265 18.2407681,20.519 18.4269979,20.707 C18.6142235,20.895 18.8671772,21 19.1310857,21 L25.4170861,21 L40.4479168,53.422 C40.6112413,53.774 40.9627873,54 41.350185,54 L52.0041191,54 C52.5548412,54 53,53.552 53,53 L53,44 C53,43.448 52.5548412,43 52.0041191,43 L52.0041191,43 Z" id="AWS-Lambda_Icon_48_Squid" fill="#FFFFFF"></path>
    </g>
    </svg>
    <text x="380" y="138" font-size="13" font-family="'Inter', 'SF Pro Display', system-ui, -apple-system, sans-serif" fill="#0369A1" font-weight="500" text-anchor="middle" dominant-baseline="middle">Auth</text>
  </g>
  <g id="handler">
    <svg x="588" y="60" width="64" height="64" viewBox="0 0 64 64" preserveAspectRatio="xMidYMid meet">
<title>Icon-Architecture/48/Arch_AWS-Lambda_48</title>
    <g id="Icon-Architecture/48/Arch_AWS-Lambda_48" stroke="none" stroke-width="1" fill="none" fill-rule="evenodd">
        <g id="Icon-Architecture-BG/48/Compute" fill="#ED7100">
            <rect id="Rectangle" x="0" y="0" width="64" height="64"></rect>
        </g>
        <path d="M22.6794094,52 L13.5740701,52 L23.8376189,30.41 L28.3997494,39.861 L22.6794094,52 Z M24.7269406,27.667 C24.5606285,27.321 24.2120702,27.103 23.8306478,27.103 L23.8276601,27.103 C23.4452418,27.104 23.0966835,27.325 22.9323632,27.672 L11.0973143,52.569 C10.9499239,52.879 10.9708374,53.243 11.1540795,53.534 C11.3353298,53.824 11.6540117,54 11.9955989,54 L23.309802,54 C23.695208,54 24.0447622,53.777 24.2100784,53.428 L30.4044577,40.284 C30.5329264,40.01 30.5319305,39.692 30.3994783,39.42 L24.7269406,27.667 Z M51.0082382,52 L41.985557,52 L26.9547262,19.578 C26.7914017,19.226 26.4388599,19 26.0524581,19 L20.1279625,19 L20.1349337,12 L31.8146251,12 L46.7747483,44.42 C46.9380728,44.774 47.2906147,45 47.6790082,45 L51.0082382,45 L51.0082382,52 Z M52.0041191,43 L48.3143803,43 L33.354257,10.58 C33.1909326,10.226 32.8383907,10 32.450993,10 L19.1400486,10 C18.5913182,10 18.1451636,10.447 18.1441677,10.999 L18.1362006,19.999 C18.1362006,20.265 18.2407681,20.519 18.4269979,20.707 C18.6142235,20.895 18.8671772,21 19.1310857,21 L25.4170861,21 L40.4479168,53.422 C40.6112413,53.774 40.9627873,54 41.350185,54 L52.0041191,54 C52.5548412,54 53,53.552 53,53 L53,44 C53,43.448 52.5548412,43 52.0041191,43 L52.0041191,43 Z" id="AWS-Lambda_Icon_48_Squid" fill="#FFFFFF"></path>
    </g>
    </svg>
    <text x="620" y="138" font-size="13" font-family="'Inter', 'SF Pro Display', system-ui, -apple-system, sans-serif" fill="#0369A1" font-weight="500" text-anchor="middle" dominant-baseline="middle">Handler</text>
  </g>
  <g id="dynamodb">
    <svg x="1308" y="60" width="64" height="64" viewBox="0 0 64 64" preserveAspectRatio="xMidYMid meet">
<title>Icon-Architecture/48/Arch_Amazon-DynamoDB_48</title>
    <g id="Icon-Architecture/48/Arch_Amazon-DynamoDB_48" stroke="none" stroke-width="1" fill="none" fill-rule="evenodd">
        <g id="Icon-Architecture-BG/48/Database" fill="#C925D1">
            <rect id="Rectangle" x="0" y="0" width="64" height="64"></rect>
        </g>
        <path d="M46.5858287,25.2492763 L43.0008475,25.2492763 C42.6728493,25.2492763 42.3658509,25.086523 42.1788519,24.8145936 C41.9918528,24.5416533 41.9488531,24.1939071 42.0648525,23.8835638 L44.5578394,17.162156 L35.6448862,17.162156 L31.5539077,26.2601663 L36.0008843,26.2601663 C36.3218827,26.2601663 36.6238811,26.4158434 36.8128801,26.6806966 C36.9998791,26.943528 37.0518788,27.2821762 36.9488794,27.5904976 L33.2888986,38.6910812 L46.5858287,25.2492763 Z M49.7068123,24.9530855 L31.7079069,43.1491063 C31.5159079,43.3442081 31.2589093,43.4452971 31.0009106,43.4452971 C30.8189116,43.4452971 30.6379125,43.3957635 30.4759134,43.2946744 C30.0809155,43.0480173 29.9049164,42.5597574 30.0529156,42.1149658 L34.6128916,28.2819464 L30.0009159,28.2819464 C29.6609177,28.2819464 29.3449193,28.1070624 29.1599203,27.8189588 C28.9769213,27.5288333 28.9499214,27.1659238 29.0909207,26.8525479 L34.0908944,15.7327574 C34.2528935,15.3718697 34.6078917,15.1403759 35.0008896,15.1403759 L46.0008318,15.1403759 C46.32883,15.1403759 46.6358284,15.3031292 46.8228274,15.5750586 C47.0098265,15.8479989 47.0528262,16.1957451 46.9378268,16.5060883 L44.44384,23.2274962 L48.999816,23.2274962 C49.4038139,23.2274962 49.769812,23.4741534 49.9238111,23.8512154 C50.0788103,24.2292882 49.9928108,24.663971 49.7068123,24.9530855 L49.7068123,24.9530855 Z M41.0008581,44.2196388 C38.2908723,46.1059597 33.3138985,47.1016863 28.5329236,47.1016863 C23.7169489,47.1016863 18.6959753,46.0928181 15.9999895,44.1781923 L16.0009895,47.9943023 C16.0009895,49.6582273 20.7689644,51.9782199 28.5329236,51.9782199 C36.0278842,51.9782199 41.0008581,49.2761108 41.0008581,47.4888572 L41.0008581,44.2196388 Z M43.0648472,40.9504204 C43.0648472,41.1374351 43.0328474,41.3173735 43.0008475,41.4963011 L43.0008475,47.4888572 C43.0008475,51.0795387 36.5108817,54 28.5329236,54 C21.6299599,54 14.6619965,52.1106465 14.0599997,48.4997473 L14.001,48.4997473 L14,43.4452971 L14,30.3037265 L14,16.1512659 L14.001,16.1512659 C14.001,12.1552176 21.4879606,10 28.5329236,10 C32.4739029,10 36.262883,10.6398934 38.9298689,11.755916 L38.163873,13.6240408 C35.7318858,12.6050636 32.2209042,12.0217801 28.5329236,12.0217801 C20.7689644,12.0217801 16.0009895,14.4266875 16.0009895,16.1512659 C16.0009895,17.8758443 20.7689644,20.2807517 28.5329236,20.2807517 C28.7279226,20.2807517 28.9319215,20.2817626 29.1289205,20.2736755 L29.2069201,22.2934338 C28.9819212,22.3025318 28.7579224,22.3025318 28.5329236,22.3025318 C23.7159489,22.3025318 18.6959753,21.2936636 15.9999895,19.3790378 L15.9999895,23.7369848 L16.0009895,23.7369848 L16.0009895,23.7541699 C16.0059895,24.2838763 16.4899869,24.8974866 17.3649823,25.4736939 C19.3469719,26.7615678 22.9149531,27.642053 26.9039322,27.8250241 L26.8129326,29.8447824 C22.6869543,29.6547351 19.0629734,28.7762717 16.7269857,27.4287552 C16.4169873,27.7269678 16.0009895,28.4851353 16.0009895,28.8955567 C16.0009895,30.6201351 20.7689644,33.0250425 28.5329236,33.0250425 C29.2709197,33.0250425 29.9979159,32.9997703 30.6949122,32.9502366 L30.8359115,34.9669623 C30.0919154,35.0205394 29.3169195,35.0468226 28.5329236,35.0468226 C23.7159489,35.0468226 18.6959753,34.0379543 15.9999895,32.1233286 L15.9999895,35.7928594 L16.0009895,35.7928594 C16.0059895,36.339751 16.4899869,36.9533612 17.3649823,37.5295685 C19.6329704,39.0044571 23.9139479,39.9233562 28.5329236,39.9233562 L28.8629219,39.9233562 L28.8629219,41.9451362 L28.5329236,41.9451362 C23.7549487,41.9451362 18.6729754,40.9372789 16.0009895,39.4017369 C15.6789912,39.6999495 16.0009895,40.4126269 16.0009895,40.9504204 C16.0009895,42.6749989 20.7689644,45.0799063 28.5329236,45.0799063 C36.2978828,45.0799063 41.0648577,42.6749989 41.0648577,40.9504204 C41.0648577,40.3408537 40.4658609,39.7757662 39.9728635,39.4118458 C39.5638656,39.658503 39.113868,39.8950512 38.6008707,40.1113817 L37.8328747,38.2442678 C38.3638719,38.0208611 38.8228695,37.7812802 39.1968675,37.5326012 C40.2978617,36.798695 41.0008581,35.7544456 41.0008581,35.3581767 L43.0008475,35.3581767 C43.0008475,36.2983045 42.3798508,37.3051509 41.583855,38.1330699 C42.7758487,39.1732757 43.0648472,40.2114598 43.0648472,40.9504204 L43.0648472,40.9504204 Z M17.1419835,48.3885494 C17.9329793,48.796949 18.8579745,49.1608694 19.893969,49.4691908 L20.457966,47.5292928 C19.5419709,47.2573634 18.7319751,46.9399439 18.0519787,46.5881542 L17.1419835,48.3885494 Z M19.893969,37.3385103 L20.457966,35.3996232 C19.5419709,35.1266829 18.7319751,34.8102743 18.0519787,34.4584846 L17.1419835,36.2578689 C17.9329793,36.6672793 18.8579745,37.0301889 19.893969,37.3385103 L19.893969,37.3385103 Z M17.1419835,24.1281992 L18.0519787,22.3278041 C18.7319751,22.6795938 19.5419709,22.9960024 20.457966,23.2689427 L19.893969,25.2088407 C18.8579745,24.9005192 17.9329793,24.5365988 17.1419835,24.1281992 L17.1419835,24.1281992 Z" id="Amazon-DynamoDB_Icon_48_Squid" fill="#FFFFFF"></path>
    </g>
    </svg>
    <text x="1340" y="138" font-size="13" font-family="'Inter', 'SF Pro Display', system-ui, -apple-system, sans-serif" fill="#0369A1" font-weight="500" text-anchor="middle" dominant-baseline="middle">DynamoDB</text>
  </g>
  <g id="queue">
    <svg x="828" y="60" width="64" height="64" viewBox="0 0 64 64" preserveAspectRatio="xMidYMid meet">
<title>Icon-Architecture/48/Arch_Amazon-Simple-Queue-Service_48</title>
    <g id="Icon-Architecture/48/Arch_Amazon-Simple-Queue-Service_48" stroke="none" stroke-width="1" fill="none" fill-rule="evenodd">
        <g id="Icon-Architecture-BG/48/Application-Integration" fill="#E7157B">
            <rect id="Rectangle" x="0" y="0" width="64" height="64"></rect>
        </g>
        <path d="M23.8465384,35.5138695 L25.8460385,32.5644909 C26.0709823,32.2326117 26.071982,31.7999835 25.848038,31.4681044 L23.8485379,28.492057 L22.1829543,29.5835048 L23.1427143,31.0127583 L20.0164959,31.0127583 L20.0164959,32.9882295 L23.1517121,32.9882295 L22.1849538,34.4145197 L23.8465384,35.5138695 Z M41.8430392,35.511894 L43.8425394,32.5476994 C44.0664834,32.2158202 44.0664834,31.7841798 43.8425394,31.4523006 L41.8430392,28.4900815 L40.1794551,29.5854803 L41.1432142,31.013746 L38.011997,31.013746 L38.011997,32.9892172 L41.1422144,32.9892172 L40.1794551,34.4164952 L41.8430392,35.511894 Z M28.4943764,32.0004939 C28.4943764,33.4850605 28.2624344,34.895547 27.8265434,36.1539221 C29.1372157,35.7183307 30.575856,35.5000412 32.0154961,35.5000412 C33.4541365,35.5000412 34.8937766,35.7183307 36.2034491,36.1539221 C35.7685579,34.895547 35.5356161,33.4850605 35.5356161,32.0004939 C35.5356161,30.516915 35.7685579,29.1064285 36.2034491,27.8480533 C33.5831042,28.7202239 30.447888,28.7202239 27.8265434,27.8480533 C28.2624344,29.1064285 28.4943764,30.516915 28.4943764,32.0004939 L28.4943764,32.0004939 Z M24.3034241,39.6198864 C24.1084729,39.427278 24.0104974,39.1744176 24.0104974,38.9215573 C24.0104974,38.668697 24.1084729,38.4158367 24.3034241,38.2232282 C25.676081,36.8670672 26.4948763,34.5409499 26.4948763,32.0004939 C26.4948763,29.4610256 25.676081,27.1349082 24.3034241,25.7787472 C24.1084729,25.5861388 24.0104974,25.3332785 24.0104974,25.0804181 C24.0104974,24.8275578 24.1084729,24.5746975 24.3034241,24.3820891 C24.6943264,23.9958844 25.3261685,23.9958844 25.7170707,24.3820891 C28.6593352,27.288995 35.3706573,27.288995 38.3139215,24.3820891 C38.703824,23.9958844 39.3366658,23.9958844 39.7275681,24.3820891 C39.9225194,24.5746975 40.0204949,24.8275578 40.0204949,25.0804181 C40.0204949,25.3332785 39.9225194,25.5861388 39.7275681,25.7787472 C38.3549113,27.1349082 37.5351162,29.4610256 37.5351162,32.0004939 C37.5351162,34.5409499 38.3549113,36.8670672 39.7275681,38.2232282 C39.9225194,38.4158367 40.0204949,38.668697 40.0204949,38.9215573 C40.0204949,39.1744176 39.9225194,39.427278 39.7275681,39.6198864 C39.5316171,39.8134826 39.2766808,39.9092929 39.0207448,39.9092929 C38.7648088,39.9092929 38.5088728,39.8134826 38.3139215,39.6198864 C35.3706573,36.7129805 28.6593352,36.7129805 25.7170707,39.6198864 C25.3261685,40.006091 24.6943264,40.006091 24.3034241,39.6198864 L24.3034241,39.6198864 Z M51.2726818,30.2630669 C50.8017996,29.7968557 50.1749563,29.5410322 49.5091227,29.5410322 C48.8432892,29.5410322 48.2164459,29.7968557 47.7455636,30.2630669 C47.2746813,30.7282904 47.0147463,31.3466129 47.0147463,32.0044448 C47.0147463,32.6632645 47.2746813,33.281587 47.7455636,33.7468104 C48.7183204,34.7078772 50.299925,34.7078772 51.2726818,33.7468104 C52.2444389,32.7867314 52.2444389,31.2231459 51.2726818,30.2630669 L51.2726818,30.2630669 Z M52.6863284,35.1434686 C51.8105474,36.008725 50.6588353,36.4423409 49.5091227,36.4423409 C48.3594101,36.4423409 47.2076981,36.008725 46.331917,35.1434686 C45.4831292,34.3058688 45.0152462,33.1907153 45.0152462,32.0044448 C45.0152462,30.8191621 45.4831292,29.7040086 46.331917,28.865421 C47.1807048,28.0268335 48.3094226,27.565561 49.5091227,27.565561 C50.7088228,27.565561 51.8375406,28.0268335 52.6863284,28.8664088 C54.4378905,30.5959338 54.4378905,33.4129558 52.6863284,35.1434686 L52.6863284,35.1434686 Z M16.2544364,30.2798584 C15.7845539,29.8146349 15.1577106,29.5588114 14.491877,29.5588114 C13.8250437,29.5588114 13.1992002,29.8146349 12.7273182,30.2798584 C11.7555611,31.2409252 11.7555611,32.8035229 12.7273182,33.7645897 C13.6690827,34.6940489 15.3126718,34.6950366 16.2544364,33.7645897 C17.2261935,32.8035229 17.2261935,31.2409252 16.2544364,30.2798584 L16.2544364,30.2798584 Z M17.668083,35.1612478 C16.8202949,35.9998354 15.6915771,36.4611079 14.491877,36.4611079 C13.2901775,36.4611079 12.1624594,35.9998354 11.3136716,35.1612478 C9.56210947,33.430735 9.56210947,30.6147008 11.3136716,28.8832003 C12.1624594,28.0446127 13.2901775,27.5833402 14.491877,27.5833402 C15.6915771,27.5833402 16.8202949,28.0446127 17.668083,28.8832003 C19.4196451,30.6147008 19.4196451,33.430735 17.668083,35.1612478 L17.668083,35.1612478 Z M43.4306423,43.3357478 C37.1022244,49.589102 26.8037991,49.589102 20.4753812,43.3357478 C18.8407898,41.7217878 17.824044,40.0614042 16.9622594,37.603918 L15.0727318,38.2508848 C16.0404899,41.0125936 17.1972007,42.8912668 19.0617346,44.732406 C22.615846,48.2447938 27.2836791,50 31.9525119,50 C36.6213447,50 41.2901775,48.2447938 44.8442889,44.732406 C46.8327918,42.7677998 48.0634841,40.8278871 48.9552612,38.2469339 L47.0637341,37.607869 C46.275931,39.8855873 45.1902024,41.5983208 43.4306423,43.3357478 L43.4306423,43.3357478 Z M16.9612597,26.3990452 L15.0737316,25.7501029 C16.0334916,23.0219771 17.2271932,21.0830521 19.0667333,19.2656186 C26.171957,12.2447938 37.7340665,12.2447938 44.8392902,19.2656186 C46.7818045,21.1847889 48.0504874,23.1849535 48.9532617,25.7501029 L47.0657336,26.3990452 C46.255936,24.0986089 45.1672082,22.3829122 43.4256436,20.6622767 C37.0992252,14.4128735 26.8067983,14.4128735 20.4803799,20.6622767 C18.8467883,22.2762367 17.8270432,23.9385958 16.9612597,26.3990452 L16.9612597,26.3990452 Z" id="AWS-Simple-Queue-Service_Icon_48_Squid" fill="#FFFFFF"></path>
    </g>
    </svg>
    <text x="860" y="138" font-size="13" font-family="'Inter', 'SF Pro Display', system-ui, -apple-system, sans-serif" fill="#0369A1" font-weight="500" text-anchor="middle" dominant-baseline="middle">Queue</text>
  </g>
  <g id="worker">
    <svg x="1068" y="60" width="64" height="64" viewBox="0 0 64 64" preserveAspectRatio="xMidYMid meet">
<title>Icon-Architecture/48/Arch_AWS-Lambda_48</title>
    <g id="Icon-Architecture/48/Arch_AWS-Lambda_48" stroke="none" stroke-width="1" fill="none" fill-rule="evenodd">
        <g id="Icon-Architecture-BG/48/Compute" fill="#ED7100">
            <rect id="Rectangle" x="0" y="0" width="64" height="64"></rect>
        </g>
        <path d="M22.6794094,52 L13.5740701,52 L23.8376189,30.41 L28.3997494,39.861 L22.6794094,52 Z M24.7269406,27.667 C24.5606285,27.321 24.2120702,27.103 23.8306478,27.103 L23.8276601,27.103 C23.4452418,27.104 23.0966835,27.325 22.9323632,27.672 L11.0973143,52.569 C10.9499239,52.879 10.9708374,53.243 11.1540795,53.534 C11.3353298,53.824 11.6540117,54 11.9955989,54 L23.309802,54 C23.695208,54 24.0447622,53.777 24.2100784,53.428 L30.4044577,40.284 C30.5329264,40.01 30.5319305,39.692 30.3994783,39.42 L24.7269406,27.667 Z M51.0082382,52 L41.985557,52 L26.9547262,19.578 C26.7914017,19.226 26.4388599,19 26.0524581,19 L20.1279625,19 L20.1349337,12 L31.8146251,12 L46.7747483,44.42 C46.9380728,44.774 47.2906147,45 47.6790082,45 L51.0082382,45 L51.0082382,52 Z M52.0041191,43 L48.3143803,43 L33.354257,10.58 C33.1909326,10.226 32.8383907,10 32.450993,10 L19.1400486,10 C18.5913182,10 18.1451636,10.447 18.1441677,10.999 L18.1362006,19.999 C18.1362006,20.265 18.2407681,20.519 18.4269979,20.707 C18.6142235,20.895 18.8671772,21 19.1310857,21 L25.4170861,21 L40.4479168,53.422 C40.6112413,53.774 40.9627873,54 41.350185,54 L52.0041191,54 C52.5548412,54 53,53.552 53,53 L53,44 C53,43.448 52.5548412,43 52.0041191,43 L52.0041191,43 Z" id="AWS-Lambda_Icon_48_Squid" fill="#FFFFFF"></path>
    </g>
    </svg>
    <text x="1100" y="138" font-size="13" font-family="'Inter', 'SF Pro Display', system-ui, -apple-system, sans-serif" fill="#0369A1" font-weight="500" text-anchor="middle" dominant-baseline="middle">Worker</text>
  </g>
</svg>
